<svg id="Layer_1" height="inherit" width="inherit" fill="Currentcolor" viewBox="0 0 512 512" xmlns="http://www.w3.org/2000/svg" data-name="Layer 1"><g><path d="m429.34 197.48a39.13 39.13 0 0 0 39.09-39.09v-85.33a39.1 39.1 0 1 0 -78.19 0v85.33a39.14 39.14 0 0 0 39.1 39.09zm-26.6-124.42a26.6 26.6 0 1 1 53.19 0v85.33a26.6 26.6 0 0 1 -53.19 0z"/><path d="m427.19 118.31c9.65 0 9.67-15 0-15s-9.67 15 0 15z"/><path d="m233.14 147.88c4.58 1.83 44.66 19.1 41.77 61.66a37.54 37.54 0 0 0 34.92 40q1.29.09 2.58.09a37.65 37.65 0 0 0 37.44-35c5.39-79.26-56.33-124.18-89.71-136.86a37.61 37.61 0 0 0 -47.77 50.44 37 37 0 0 0 20.77 19.67zm-9.88-43.88a25.19 25.19 0 0 1 32.44-14.53c30.39 11.54 86.57 52.37 81.68 124.32a25.16 25.16 0 0 1 -26.71 23.3 25.05 25.05 0 0 1 -23.29-26.7c3.49-51.39-44.16-71.94-49.71-74.16a24.7 24.7 0 0 1 -13.89-13.11 25 25 0 0 1 -.52-19.12z"/><path d="m261.44 130c9.65 0 9.67-15 0-15s-9.67 15 0 15z"/><path d="m58.26 241.69a37.32 37.32 0 0 0 15-3.12c90.58-39.39 92.36-131.18 80.65-174.22a37.56 37.56 0 0 0 -72.52 19.71c.69 2.53 16.14 62-38.12 85.62a37.56 37.56 0 0 0 15 72zm-10-60.54c64.06-27.86 46-97.42 45.2-100.36a25.06 25.06 0 1 1 48.36-13.16c10.73 39.43 9.16 123.5-73.58 159.47a24.73 24.73 0 0 1 -10 2.09 25.06 25.06 0 0 1 -10-48z"/><path d="m118.4 97.44c9.66 0 9.67-15 0-15s-9.66 15 0 15z"/><path d="m223.33 314.2c-10.38-17.91.47-50.49 7.34-63.43a37.56 37.56 0 0 0 -66.09-35.71c-4.23 7.81-40.37 77.92-6.23 136.81a37.55 37.55 0 1 0 65-37.67zm-10.81 6.27a25.06 25.06 0 1 1 -43.36 25.13c-30.72-53 2.52-117.4 6.41-124.58a25.06 25.06 0 0 1 44.08 23.86c-6.78 12.76-21.26 51.22-7.13 75.59z"/><path d="m182.25 278.27c-9.65 0-9.67 15 0 15s9.67-15 0-15z"/><path d="m461.4 246.44a37.74 37.74 0 0 0 -35.8-11.27 37.57 37.57 0 0 0 -19.52 62.08c14 15.25 10.44 49.4 6.52 63.52a37.56 37.56 0 0 0 72.24 20.6c2.44-8.53 22.59-84.8-23.44-134.93zm11.41 131.48a25.06 25.06 0 0 1 -48.18-13.78c3.86-13.92 9.7-54.6-9.36-75.35a25.06 25.06 0 1 1 36.92-33.89c41.42 45.1 22.88 115.18 20.62 123.02z"/><path d="m452.32 323.65c9.65 0 9.67-15 0-15s-9.66 15 0 15z"/><path d="m131.89 406.61c-22.18-18.33-31.86-68.78-33.08-90.33a37.56 37.56 0 0 0 -75 4c.53 10.1 6.7 100 60.24 144.25a37.56 37.56 0 1 0 47.85-57.91zm-4.61 44.91a25 25 0 0 1 -35.28 3.36c-49.42-40.83-55.21-125.72-55.71-135.27a25.09 25.09 0 0 1 23.71-26.33h1.35a25.07 25.07 0 0 1 25 23.72c1.12 19.9 10.06 76.53 37.6 99.27a25.06 25.06 0 0 1 3.35 35.28z"/><path d="m95.08 415.78c-9.66 0-9.67 15 0 15s9.66-15 0-15z"/><path d="m346.47 322.09c-35.47 3.78-106.57 31.91-121.91 111.25a37.61 37.61 0 0 0 36.91 44.66 37.6 37.6 0 0 0 36.83-30.44c8.43-43.62 51.57-50.25 56.39-50.85a37.56 37.56 0 0 0 -8.23-74.66zm6.75 62.25c-5.81.73-57.07 8.61-67.18 60.88a25.06 25.06 0 0 1 -49.21-9.51c13.95-72.18 78.69-97.75 111-101.19a24 24 0 0 1 2.67-.14 25.06 25.06 0 0 1 2.75 50z"/><path d="m268.81 407.19c-9.66 0-9.67 15 0 15s9.66-15 0-15z"/></g></svg>