<svg xmlns="http://www.w3.org/2000/svg" xmlns:xlink="http://www.w3.org/1999/xlink" viewBox="0 0 375 86" width="375" height="86" preserveAspectRatio="xMidYMid meet" style="width: 100%; height: 100%; transform: translate3d(0px, 0px, 0px); content-visibility: visible;"><defs><clipPath id="__lottie_element_8"><rect width="375" height="86" x="0" y="0"/></clipPath></defs><g clip-path="url(#__lottie_element_8)"><g transform="matrix(1,0,0,1,278.06805419921875,61.5260009765625)" opacity="1" style="display: block;"><g opacity="1" transform="matrix(1,0,0,1,0,0)"><path fill="rgb(240,225,75)" fill-opacity="1" d=" M-360,-20.416000366210938 C-390,-25.82699966430664 -420,-25.82699966430664 -450,-20.416000366210938 C-450,-20.416000366210938 -450,24.474000930786133 -450,24.474000930786133 C-450,24.474000930786133 450,24.474000930786133 450,24.474000930786133 C450,24.474000930786133 450,-20.416000366210938 450,-20.416000366210938 C420,-15.005000114440918 390,-15.005000114440918 360,-20.416000366210938 C330,-25.82699966430664 300,-25.82699966430664 270,-20.416000366210938 C240,-15.005000114440918 210,-15.005000114440918 180,-20.416000366210938 C150,-25.82699966430664 120,-25.82699966430664 90,-20.416000366210938 C60,-15.005000114440918 30,-15.005000114440918 0,-20.416000366210938 C-30,-25.82699966430664 -60,-25.82699966430664 -90,-20.416000366210938 C-120,-15.005000114440918 -150,-15.005000114440918 -180,-20.416000366210938 C-210,-25.82699966430664 -240,-25.82699966430664 -270,-20.416000366210938 C-300,-15.005000114440918 -330,-15.005000114440918 -360,-20.416000366210938z"/></g></g></g></svg>