<svg id="Layer_1" height="inherit" width="inherit" fill="Currentcolor" viewBox="0 0 512 512" xmlns="http://www.w3.org/2000/svg"><g><g><g><path d="m279.8 427.6c-5.9 0-11.8-.2-17.7-.6l-30.3-2 7.2-11.6c22.1-35.7 54.3-79.2 76.4-108.2-31.9 20.7-64 49.4-90.3 81.2l-13.1 15.9-1.8-27.2c-4.4-200.8 97.9-211.4 188.2-220.8 36.2-3.8 70.4-7.3 95.8-22.6l11.5-6.9 3.6 54.9c4.5 67.8-16.9 130.6-60.2 176.9-42.7 45.8-102.9 71-169.3 71zm-19.4-17.1 2.8.2c5.5.4 11.1.6 16.6.6 61.8 0 117.7-23.4 157.4-65.8 40.2-42.9 60-101.4 55.8-164.6l-1.9-29c-26.4 12.1-57.9 15.3-91 18.8-85 8.8-172.7 17.9-173.6 189.3 35.1-38.3 77.6-70.8 116.7-88.8l31.4-14.5-21.6 26.9c-.6.8-56 70.4-92.6 126.9z"/></g></g><g><g><path d="m86.1 242.6h158.9v16.4h-158.9z" transform="matrix(.707 .707 -.707 .707 225.857 -43.61)"/></g></g><g><g><path d="m189.5 218.7h16.4v64.2h-16.4z"/></g></g><g><g><path d="m109.4 226.6h40.1v16.4h-40.1z"/></g></g><g><g><path d="m202.9 350.2c-58 0-110.5-22-147.9-62-37.8-40.4-56.4-95.2-52.5-154.3l3.3-49.5 11.5 6.9c21.9 13.1 51.4 16.2 82.7 19.5 63.8 6.6 136 14.2 157.9 113.1l.8 3.5-2 2.9c-17.9 26.3-27.6 62.8-29.8 111.5l-.3 7.3-8.2.6c-5.2.3-10.4.5-15.5.5zm-182.4-238.8-1.6 23.6c-3.6 54.5 13.5 105 48.2 142 34.3 36.6 82.5 56.8 135.9 56.8 2.7 0 5.3 0 8-.2 2.8-46.5 12.7-82.4 30.2-109.6-20.1-84.2-79.7-90.4-142.8-97-28.3-2.8-55.2-5.6-77.9-15.6z"/></g></g></g></svg>