<svg xmlns="http://www.w3.org/2000/svg" xmlns:xlink="http://www.w3.org/1999/xlink" width="2048" zoomAndPan="magnify" viewBox="0 0 1536 357.749992" height="477" preserveAspectRatio="xMidYMid meet" version="1.0"><defs><clipPath id="01a76d9117"><path d="M 0.539062 175 L 145 175 L 145 357.496094 L 0.539062 357.496094 Z M 0.539062 175 " clip-rule="nonzero"/></clipPath><clipPath id="e9687cd7ae"><path d="M 1393 177 L 1535.457031 177 L 1535.457031 340 L 1393 340 Z M 1393 177 " clip-rule="nonzero"/></clipPath></defs><g clip-path="url(#01a76d9117)"><path fill="#ff21ce" d="M 53.734375 357.820312 L 0.644531 195.882812 L 39.46875 175.207031 L 144.394531 309.546875 L 116.972656 324.152344 L 96.699219 297.367188 L 70.050781 311.554688 L 80.976562 343.3125 Z M 60.820312 288.292969 L 82.371094 276.8125 L 54.292969 238.804688 L 34.730469 211.40625 L 33.320312 212.160156 L 45.65625 243.660156 Z M 60.820312 288.292969 " fill-opacity="1" fill-rule="nonzero"/></g><path fill="#ff21ce" d="M 150.664062 307.238281 L 81.058594 154.453125 L 109.375 141.558594 L 167.039062 268.136719 L 196.171875 254.863281 L 208.109375 281.070312 Z M 150.664062 307.238281 " fill-opacity="1" fill-rule="nonzero"/><path fill="#ff21ce" d="M 215.121094 278.253906 L 153.335938 122.148438 L 182.265625 110.707031 L 233.46875 240.050781 L 263.234375 228.269531 L 273.824219 255.035156 Z M 215.121094 278.253906 " fill-opacity="1" fill-rule="nonzero"/><path fill="#ff21ce" d="M 333.765625 234.898438 L 293.152344 101.140625 L 270.445312 108.023438 L 262.289062 81.140625 L 339.414062 57.71875 L 347.574219 84.601562 L 324.015625 91.765625 L 364.628906 225.527344 Z M 333.765625 234.898438 " fill-opacity="1" fill-rule="nonzero"/><path fill="#ff21ce" d="M 394.65625 216.457031 L 356.628906 52.929688 L 388.050781 45.625 L 403.691406 112.921875 L 429.261719 106.972656 L 413.621094 39.675781 L 445.480469 32.273438 L 483.507812 195.800781 L 451.648438 203.203125 L 435.53125 133.898438 L 409.960938 139.847656 L 426.078125 209.152344 Z M 394.65625 216.457031 " fill-opacity="1" fill-rule="nonzero"/><path fill="#ff21ce" d="M 495.714844 193.808594 L 468.414062 28.152344 L 537.5 16.75 L 541.980469 44.011719 L 503.574219 50.339844 L 510.320312 91.25 L 544.40625 85.640625 L 548.605469 111.089844 L 514.519531 116.699219 L 521.902344 161.472656 L 560.304688 155.144531 L 564.800781 182.40625 Z M 495.714844 193.808594 " fill-opacity="1" fill-rule="nonzero"/><path fill="#ff21ce" d="M 657.03125 175.421875 C 644.773438 176.289062 634.855469 173.710938 627.285156 167.703125 C 619.707031 161.691406 613.921875 152.332031 609.933594 139.605469 C 605.953125 126.886719 603.296875 111.109375 601.972656 92.285156 C 600.769531 75.28125 600.957031 61.179688 602.550781 49.980469 C 604.140625 38.789062 606.933594 29.894531 610.925781 23.296875 C 614.929688 16.703125 619.867188 11.894531 625.730469 8.871094 C 631.59375 5.835938 638.199219 4.054688 645.550781 3.535156 C 661.628906 2.398438 673.609375 6.933594 681.488281 17.148438 C 689.367188 27.351562 694.144531 42.015625 695.816406 61.144531 L 665.730469 63.292969 C 664.535156 50.890625 662.453125 42.335938 659.5 37.625 C 656.554688 32.917969 652.402344 30.753906 647.042969 31.136719 C 640.144531 31.628906 635.859375 36.359375 634.1875 45.324219 C 632.515625 54.292969 632.421875 69.191406 633.910156 90.015625 C 635.40625 111.308594 637.671875 126.425781 640.695312 135.367188 C 643.71875 144.3125 648.675781 148.535156 655.558594 148.042969 C 661.6875 147.605469 665.695312 144.4375 667.578125 138.53125 C 669.472656 132.632812 670.046875 124.320312 669.289062 113.597656 L 668.773438 106.234375 L 651.539062 107.449219 L 649.828125 83.332031 L 697.148438 79.96875 L 699.4375 112.363281 C 700.457031 126.613281 699.28125 138.246094 695.914062 147.265625 C 692.558594 156.277344 687.539062 163.054688 680.851562 167.601562 C 674.164062 172.15625 666.226562 174.761719 657.03125 175.421875 Z M 657.03125 175.421875 " fill-opacity="1" fill-rule="nonzero"/><path fill="#ff21ce" d="M 760.050781 171.96875 C 742.230469 171.898438 729.664062 164.71875 722.34375 150.417969 C 715.03125 136.105469 711.425781 114.515625 711.535156 85.644531 C 711.640625 56.792969 715.402344 35.242188 722.820312 20.996094 C 730.246094 6.738281 742.867188 -0.363281 760.6875 -0.296875 C 778.644531 -0.226562 791.28125 7 798.59375 21.394531 C 805.917969 35.773438 809.523438 57.320312 809.417969 86.023438 C 809.308594 114.894531 805.542969 136.449219 798.117188 150.695312 C 790.699219 164.945312 778.007812 172.03125 760.050781 171.96875 Z M 760.148438 144.566406 C 767.203125 144.597656 771.859375 139.585938 774.117188 129.542969 C 776.386719 119.503906 777.5625 104.957031 777.640625 85.90625 C 777.71875 65.648438 776.546875 50.832031 774.117188 41.449219 C 771.691406 32.074219 767.179688 27.371094 760.589844 27.34375 C 753.671875 27.316406 749.125 32.292969 746.9375 42.265625 C 744.746094 52.230469 743.617188 66.734375 743.554688 85.765625 C 743.476562 106.039062 744.570312 120.902344 746.835938 130.359375 C 749.105469 139.820312 753.542969 144.558594 760.148438 144.566406 Z M 760.148438 144.566406 " fill-opacity="1" fill-rule="nonzero"/><path fill="#ff21ce" d="M 864.347656 176.269531 C 846.601562 174.875 834.605469 166.769531 828.371094 151.949219 C 822.148438 137.121094 820.175781 115.316406 822.441406 86.542969 C 824.710938 57.785156 830.074219 36.578125 838.539062 22.925781 C 847.015625 9.265625 860.128906 3.128906 877.878906 4.519531 C 895.789062 5.941406 907.851562 14.101562 914.078125 28.996094 C 920.296875 43.878906 922.28125 65.628906 920.027344 94.246094 C 917.757812 123.019531 912.386719 144.238281 903.910156 157.898438 C 895.441406 171.5625 882.257812 177.683594 864.347656 176.269531 Z M 866.5 148.945312 C 873.542969 149.503906 878.566406 144.863281 881.582031 135.015625 C 884.589844 125.175781 886.84375 110.753906 888.347656 91.757812 C 889.941406 71.570312 889.871094 56.707031 888.148438 47.164062 C 886.4375 37.628906 882.289062 32.597656 875.710938 32.082031 C 868.828125 31.539062 863.917969 36.160156 860.984375 45.949219 C 858.066406 55.730469 855.855469 70.101562 854.359375 89.070312 C 852.769531 109.277344 852.75 124.183594 854.300781 133.78125 C 855.851562 143.375 859.917969 148.429688 866.5 148.945312 Z M 866.5 148.945312 " fill-opacity="1" fill-rule="nonzero"/><path fill="#ff21ce" d="M 922.652344 179.261719 L 948.261719 13.34375 L 981.492188 18.476562 C 1001.828125 21.613281 1015.832031 30.527344 1023.5 45.222656 C 1031.179688 59.90625 1032.785156 81.746094 1028.316406 110.730469 C 1026.441406 122.882812 1023.84375 133.90625 1020.511719 143.800781 C 1017.199219 153.699219 1012.773438 161.988281 1007.246094 168.675781 C 1001.703125 175.351562 994.761719 180.097656 986.402344 182.921875 C 978.046875 185.746094 967.875 186.234375 955.886719 184.394531 Z M 957.816406 156.714844 L 965.332031 157.867188 C 973.679688 159.15625 980.28125 155.636719 985.132812 147.304688 C 989.996094 138.976562 993.957031 124.945312 996.996094 105.214844 C 999.15625 91.261719 1000.023438 80.140625 999.601562 71.847656 C 999.171875 63.542969 997.511719 57.453125 994.609375 53.578125 C 991.714844 49.710938 987.683594 47.371094 982.527344 46.574219 L 975.007812 45.421875 Z M 957.816406 156.714844 " fill-opacity="1" fill-rule="nonzero"/><path fill="#ff21ce" d="M 1100.925781 215.621094 C 1090.378906 212.914062 1082.460938 208.542969 1077.179688 202.507812 C 1071.917969 196.488281 1068.859375 189.089844 1068.011719 180.320312 C 1067.179688 171.554688 1068.097656 161.894531 1070.800781 151.347656 L 1097.582031 158.191406 C 1094.6875 169.484375 1094.105469 177.613281 1095.851562 182.589844 C 1097.601562 187.554688 1101 190.683594 1106.054688 191.980469 C 1110.964844 193.230469 1114.871094 192.367188 1117.773438 189.394531 C 1120.6875 186.410156 1122.875 182.019531 1124.34375 176.21875 C 1125.683594 171.007812 1125.941406 166.441406 1125.117188 162.511719 C 1124.296875 158.570312 1122.484375 154.820312 1119.664062 151.246094 C 1116.855469 147.679688 1113.3125 143.753906 1109.042969 139.46875 C 1104.621094 135.011719 1100.515625 130.15625 1096.703125 124.902344 C 1092.890625 119.648438 1090.265625 113.515625 1088.824219 106.496094 C 1087.382812 99.464844 1087.917969 91.042969 1090.4375 81.222656 C 1094.199219 66.5 1100.8125 56.625 1110.257812 51.59375 C 1119.695312 46.554688 1130.523438 45.597656 1142.730469 48.730469 C 1156.707031 52.308594 1166.296875 59.007812 1171.460938 68.804688 C 1176.640625 78.613281 1177.039062 92.066406 1172.65625 109.179688 L 1145.433594 102.214844 C 1148.03125 92.097656 1148.625 84.839844 1147.210938 80.449219 C 1145.789062 76.042969 1142.78125 73.253906 1138.175781 72.070312 C 1133.707031 70.929688 1130.078125 71.785156 1127.289062 74.636719 C 1124.507812 77.476562 1122.40625 81.652344 1121.003906 87.152344 C 1119.617188 92.5 1119.320312 97.058594 1120.105469 100.824219 C 1120.886719 104.59375 1122.597656 108.125 1125.242188 111.429688 C 1127.878906 114.722656 1131.222656 118.390625 1135.273438 122.433594 C 1140.34375 127.371094 1144.851562 132.683594 1148.777344 138.371094 C 1152.703125 144.054688 1155.433594 150.382812 1156.984375 157.355469 C 1158.53125 164.320312 1158.121094 172.414062 1155.769531 181.632812 C 1151.835938 196.957031 1145.0625 207.308594 1135.445312 212.695312 C 1125.824219 218.078125 1114.316406 219.050781 1100.925781 215.621094 Z M 1100.925781 215.621094 " fill-opacity="1" fill-rule="nonzero"/><path fill="#ff21ce" d="M 1169.171875 232.699219 L 1212.246094 99.714844 L 1189.6875 92.414062 L 1198.339844 65.6875 L 1275.027344 90.523438 L 1266.375 117.246094 L 1242.9375 109.664062 L 1199.851562 242.648438 Z M 1169.171875 232.699219 " fill-opacity="1" fill-rule="nonzero"/><path fill="#ff21ce" d="M 1270.644531 270.957031 C 1256.242188 265.210938 1247.320312 256.53125 1243.851562 244.910156 C 1240.394531 233.28125 1241.617188 220.039062 1247.539062 205.195312 L 1291.019531 96.105469 L 1320.113281 107.707031 L 1276.527344 217.011719 C 1273.234375 225.289062 1272.222656 231.496094 1273.460938 235.617188 C 1274.714844 239.746094 1277.40625 242.632812 1281.542969 244.273438 C 1286.242188 246.160156 1290.425781 245.816406 1294.101562 243.238281 C 1297.769531 240.652344 1301.113281 235.578125 1304.132812 228.015625 L 1347.707031 118.710938 L 1376.378906 130.132812 L 1332.902344 239.21875 C 1326.414062 255.484375 1317.734375 266.164062 1306.855469 271.257812 C 1295.996094 276.351562 1283.921875 276.253906 1270.644531 270.957031 Z M 1270.644531 270.957031 " fill-opacity="1" fill-rule="nonzero"/><path fill="#ff21ce" d="M 1324.8125 291.195312 L 1396.828125 139.542969 L 1459.46875 169.292969 L 1447.625 194.246094 L 1414.335938 178.449219 L 1394.574219 220.054688 L 1423.707031 233.886719 L 1412.351562 257.804688 L 1383.21875 243.972656 L 1354.164062 305.144531 Z M 1324.8125 291.195312 " fill-opacity="1" fill-rule="nonzero"/><g clip-path="url(#e9687cd7ae)"><path fill="#ff21ce" d="M 1393.992188 324.472656 L 1474.242188 177.003906 L 1535.132812 210.132812 L 1521.945312 234.410156 L 1489.582031 216.800781 L 1467.558594 257.253906 L 1495.878906 272.675781 L 1483.222656 295.9375 L 1454.902344 280.515625 L 1422.53125 339.996094 Z M 1393.992188 324.472656 " fill-opacity="1" fill-rule="nonzero"/></g></svg>