<svg width="806" height="378" viewBox="0 0 806 378" fill="none" xmlns="http://www.w3.org/2000/svg">
<path d="M60.8724 295.373C65.5606 296.095 69.8881 295.734 74.5763 295.012H75.6569C83.9511 293.929 92.9668 292.487 100.9 288.519C105.226 286.353 109.553 283.828 113.159 280.22C113.52 279.499 114.602 279.138 115.324 279.138C120.011 279.859 121.814 276.252 123.977 273.005C125.42 271.2 126.863 269.397 129.026 267.953C139.123 260.738 144.172 249.193 150.662 239.092C153.546 235.123 155.711 230.793 157.152 226.464C158.235 222.497 157.152 218.528 159.317 215.28C162.562 210.23 162.201 203.375 161.48 197.241C160.038 188.583 158.595 179.924 155.35 171.626C145.613 147.093 125.781 131.58 110.275 110.655C107.751 107.408 105.587 104.162 104.865 100.554C103.063 89.7307 120.011 79.6277 127.583 74.5779C139.123 67.7233 152.105 63.3937 165.446 61.2281C172.298 59.786 179.509 59.0641 186.361 61.2281C198.982 65.5577 197.178 75.2981 198.621 86.1229C199.343 90.09 201.506 94.4196 206.194 94.0587C216.29 93.3384 212.684 85.4011 211.604 79.2668C210.522 72.4122 209.8 63.7547 205.112 58.3422L204.39 57.6204C198.261 51.4877 189.606 47.519 181.313 46.7972C173.741 46.0753 165.807 47.519 158.595 49.683C138.04 55.4564 119.65 65.1968 101.981 76.7419C99.8179 78.1856 98.0141 79.6277 96.212 81.4324L83.5903 92.6165C83.2296 92.9775 82.1489 98.7492 82.1489 99.832C82.1489 100.915 83.9511 101.996 83.9511 103.079C84.3119 105.243 82.5097 107.047 83.2296 108.851C83.2296 110.294 84.3119 111.016 85.3941 111.738C106.669 131.58 135.156 154.67 142.007 183.893C145.613 198.685 144.893 213.837 138.401 227.186C130.828 243.782 120.732 258.574 104.145 268.675C93.3275 275.53 82.1489 279.859 69.5273 279.859C47.5309 279.859 28.0581 267.953 21.5678 246.307C18.3226 234.762 19.0441 222.497 23.3715 211.312C24.8129 207.344 26.6167 203.736 29.5012 200.849C32.3856 197.963 35.9915 195.799 39.9582 194.716C43.9249 193.633 47.8916 193.633 51.8584 194.355C54.7428 194.716 59.0702 198.324 61.9547 197.602C62.6762 197.241 63.3977 196.521 64.1192 195.799L68.0843 191.469C74.2155 184.615 69.1666 182.449 63.0369 179.202C55.4643 175.594 47.5309 175.955 39.9582 178.841C28.0581 183.532 20.1264 192.913 13.2736 203.375C11.1107 206.261 10.3892 210.591 9.66765 214.559C8.94777 216.723 9.30689 219.248 8.58701 221.414C4.62031 244.504 11.1107 263.624 28.4189 279.138C31.6641 282.023 34.5501 284.911 38.1561 287.436C41.4013 289.6 45.0072 291.044 48.9739 292.126C52.9406 293.208 56.9073 294.651 60.8724 295.373Z" fill="#FF21CE"/>
<path d="M193.212 266.511C195.736 264.706 198.981 263.263 201.505 261.099C209.438 253.883 235.762 227.546 239.368 227.185C240.45 227.185 235.041 236.927 234.319 245.585C232.878 253.883 234.319 255.688 236.123 260.016C237.925 264.345 240.811 266.15 245.858 264.706C248.384 263.984 250.907 262.903 253.431 261.099C261.725 255.327 269.659 249.193 278.312 243.06C291.655 234.04 327.715 208.425 329.158 206.983C334.566 203.014 338.172 194.716 332.764 191.83C331.321 190.747 327.354 193.633 324.83 195.077C319.42 197.962 314.373 201.931 309.324 205.178L282.279 222.856C271.822 229.712 261.365 236.566 251.629 245.224C250.547 246.307 247.302 250.275 246.219 247.75C245.498 245.585 248.023 241.616 248.743 239.813L261.004 216.723C264.61 209.868 267.494 203.014 271.822 196.159C274.706 192.552 276.51 188.944 275.788 183.892C275.428 182.088 275.428 180.285 275.428 178.48C275.067 162.968 259.562 153.226 245.498 159.36C241.172 161.524 236.844 163.688 232.878 166.576C213.405 181.728 198.26 200.128 186 221.414C182.754 227.185 180.591 233.679 178.787 239.813C176.263 250.275 178.787 258.935 187.081 265.789C189.246 267.592 191.048 267.953 193.212 266.511ZM193.932 246.307L192.852 243.421C193.932 234.762 196.097 227.185 200.783 220.692C209.078 208.786 217.372 196.88 228.19 187.5C235.041 181.728 241.892 175.955 249.464 171.265C253.07 169.101 257.398 166.576 261.725 169.822C264.61 172.347 263.888 177.76 259.922 183.171C256.676 187.5 253.07 191.83 249.464 195.798C240.09 205.9 231.074 216.001 220.256 224.66C213.405 230.432 206.915 236.566 200.424 242.338C199.703 243.421 198.981 244.143 197.899 244.504C196.818 245.224 195.375 245.946 193.932 246.307Z" fill="#FF21CE"/>
<path d="M278.314 373.661C293.459 374.022 302.473 361.396 311.489 346.604C321.585 330.007 330.961 313.051 340.697 296.096C347.548 284.55 354.76 273.366 362.693 262.182C376.396 241.978 389.017 221.053 402.359 200.488C404.523 197.602 407.047 195.077 409.931 192.552C411.735 190.748 414.259 189.306 416.063 187.501C418.947 184.615 418.947 181.007 416.422 177.761C412.816 172.348 403.441 170.906 398.753 174.873C389.017 183.171 377.839 192.913 365.939 197.602C354.038 202.654 344.664 211.672 334.207 219.249C332.042 220.692 329.518 222.136 327.355 220.692C328.075 217.085 329.518 214.199 331.322 210.952C336.369 201.571 342.14 192.552 348.991 184.254C354.76 176.678 364.856 171.265 356.924 161.525C355.842 160.442 355.121 159.361 353.678 159C351.154 158.278 348.63 160.442 347.187 162.247C338.173 171.265 330.24 181.368 323.028 191.831C319.783 196.521 317.979 201.21 315.455 206.261C313.652 209.508 307.522 218.167 308.243 221.775C308.604 224.3 308.243 226.464 308.604 228.991C310.767 238.009 318.34 242.339 327.355 239.453C331.681 238.37 335.648 236.928 339.254 234.401C347.187 229.713 354.399 223.939 361.611 218.889C364.136 217.446 368.103 215.28 368.823 216.002C372.068 218.889 367.742 220.331 367.021 222.497C363.776 231.516 358.005 238.37 352.958 246.307C345.746 257.131 338.893 267.954 332.042 279.138C326.995 287.436 323.028 295.735 317.979 304.031C312.932 312.33 309.326 321.35 303.194 329.287C302.473 330.007 295.622 342.274 286.608 346.604C281.198 349.129 275.429 350.933 269.659 353.819C268.937 354.18 268.217 354.18 267.496 354.902C266.774 355.622 266.413 356.344 266.413 357.427C266.413 359.952 265.331 362.838 266.053 365.364C267.857 370.414 272.904 373.661 278.314 373.661Z" fill="#FF21CE"/>
<path d="M474.84 138.795L486.741 121.478C489.986 116.427 494.313 112.097 499.723 109.572C510.902 103.801 511.262 101.635 501.886 92.9775C497.919 89.7307 495.395 89.0088 491.068 91.5337C488.905 92.6166 486.38 94.4196 484.578 96.5852C478.807 104.882 473.399 113.541 467.629 121.839C466.909 123.281 466.187 124.725 465.826 126.53C465.466 130.858 464.744 135.187 467.989 138.795C470.154 141.681 472.678 142.042 474.84 138.795ZM415.343 264.707C417.867 263.985 420.751 262.904 422.916 261.099C431.208 255.327 439.503 249.193 447.797 243.06C461.138 234.04 497.198 208.425 499.001 206.983C504.05 203.014 508.015 194.716 502.607 191.83C501.164 190.747 496.839 193.633 494.313 195.077C493.231 195.799 458.615 218.889 442.026 229.351C434.094 234.762 425.8 239.813 417.867 244.863C412.098 248.112 412.818 241.616 413.539 238.37C414.622 234.401 416.424 230.793 418.228 227.186C422.194 220.331 426.883 214.198 430.848 207.344C437.34 197.241 444.912 186.418 453.566 177.76C455.009 176.316 463.303 171.265 463.303 169.462C463.303 165.132 452.485 163.688 448.879 164.41C439.503 165.493 427.963 187.14 422.916 194.355C413.9 206.622 405.606 219.97 398.394 233.32C391.543 245.585 398.394 270.119 415.343 264.707Z" fill="#FF21CE"/>
<path d="M488.54 266.511C491.064 264.706 494.309 263.263 496.833 261.099C504.766 253.883 531.09 227.546 534.696 227.185C535.779 227.185 530.369 236.927 529.647 245.585C528.206 253.883 529.647 255.688 531.451 260.016C533.253 264.345 536.139 266.15 541.187 264.706C543.712 263.984 546.236 262.903 548.759 261.099C557.053 255.327 564.987 249.193 573.64 243.06C586.983 234.04 623.043 208.425 624.486 206.983C629.894 203.014 633.5 194.716 628.092 191.83C626.649 190.747 622.682 193.633 620.158 195.077C614.749 197.962 609.701 201.931 604.652 205.178L577.607 222.856C567.15 229.712 556.693 236.566 546.957 245.224C545.875 246.307 542.63 250.275 541.547 247.75C540.826 245.585 543.351 241.616 544.071 239.813L556.332 216.723C559.938 209.868 562.822 203.014 567.15 196.159C570.034 192.552 571.838 188.944 571.116 183.892C570.756 182.088 570.756 180.285 570.756 178.48C570.395 162.968 554.891 153.226 540.826 159.36C536.5 161.524 532.173 163.688 528.206 166.576C508.733 181.728 493.588 200.128 481.329 221.414C478.082 227.185 475.919 233.679 474.115 239.813C471.591 250.275 474.115 258.935 482.409 265.789C484.574 267.592 486.376 267.953 488.54 266.511ZM489.26 246.307L488.18 243.421C489.26 234.762 491.425 227.185 496.111 220.692C504.406 208.786 512.7 196.88 523.518 187.5C530.369 181.728 537.22 175.955 544.793 171.265C548.399 169.101 552.726 166.576 557.053 169.822C559.938 172.347 559.216 177.76 555.25 183.171C552.004 187.5 548.399 191.83 544.793 195.798C535.418 205.9 526.402 216.001 515.584 224.66C508.733 230.432 502.243 236.566 495.752 242.338C495.031 243.421 494.309 244.143 493.227 244.504C492.146 245.224 490.703 245.946 489.26 246.307Z" fill="#FF21CE"/>
<path d="M669.201 268.315C688.673 265.068 700.572 253.162 716.078 242.339C729.421 233.32 765.12 207.705 766.922 206.262C772.332 202.293 775.938 193.995 770.528 190.748C769.086 190.026 765.12 192.913 762.235 194.356C739.517 206.262 720.045 225.022 696.966 236.567C694.803 237.648 688.673 239.453 690.836 234.402C692.279 231.155 694.081 227.908 695.524 224.661L703.097 211.313L711.031 196.88C712.833 192.913 713.915 188.945 715.717 186.057C718.242 181.368 721.488 177.039 724.372 172.709C725.454 171.265 726.535 169.823 726.896 168.019C727.256 167.298 727.256 166.937 727.256 166.576C726.896 165.133 725.094 164.772 724.011 164.411C718.962 163.689 711.75 161.525 706.703 162.969C702.376 164.411 696.966 167.298 693.001 169.823C677.855 179.203 662.71 188.223 649.006 199.768C645.041 203.015 640.714 205.901 636.386 208.786C636.026 209.147 634.943 209.147 634.222 209.147C634.222 205.901 632.42 205.901 635.665 201.21C643.237 190.387 650.089 179.203 658.022 168.74C662.349 162.608 664.152 156.114 659.104 152.506C654.055 149.258 651.532 149.258 647.926 152.866C641.075 164.411 634.583 176.317 626.29 186.779C618.357 197.241 610.062 207.344 604.294 218.889C600.688 225.744 595.999 232.238 592.754 239.453C590.229 245.586 588.788 253.162 592.033 258.575C593.115 260.378 599.966 263.985 605.374 260.017C611.866 254.967 614.751 244.144 619.798 237.289C624.847 230.794 632.059 226.464 638.188 221.775C653.695 209.869 672.807 197.602 689.034 187.14C693.36 185.698 696.607 187.862 694.803 190.748C679.297 217.446 685.787 209.508 664.152 249.915C661.989 253.884 663.432 267.232 669.201 268.315Z" fill="#FF21CE"/>
<mask id="mask0_125_448" style="mask-type:luminance" maskUnits="userSpaceOnUse" x="545" y="44" width="49" height="24">
<path d="M545.312 44.9395H593.169V67.1995H545.312V44.9395Z" fill="white"/>
</mask>
<g mask="url(#mask0_125_448)">
<mask id="mask1_125_448" style="mask-type:luminance" maskUnits="userSpaceOnUse" x="486" y="-47" width="352" height="325">
<path d="M486.617 163.673L579.085 -46.9883L837.124 66.3887L744.656 277.048L486.617 163.673Z" fill="white"/>
</mask>
<g mask="url(#mask1_125_448)">
<mask id="mask2_125_448" style="mask-type:luminance" maskUnits="userSpaceOnUse" x="486" y="-47" width="351" height="325">
<path d="M578.952 -46.6953L486.484 163.964L744.525 277.341L836.992 66.6817L578.952 -46.6953Z" fill="white"/>
</mask>
<g mask="url(#mask2_125_448)">
<path d="M567.505 60.3175C583.662 47.4861 594.683 50.4573 592.912 47.2187C591.306 44.282 574.475 45.0662 564.33 47.3368C534.743 53.9568 543.77 79.1666 567.505 60.3175Z" fill="#FF21CE"/>
</g>
</g>
</g>
<mask id="mask3_125_448" style="mask-type:luminance" maskUnits="userSpaceOnUse" x="586" y="98" width="14" height="39">
<path d="M586.031 98.6992H599.465V136.919H586.031V98.6992Z" fill="white"/>
</mask>
<g mask="url(#mask3_125_448)">
<mask id="mask4_125_448" style="mask-type:luminance" maskUnits="userSpaceOnUse" x="486" y="-47" width="352" height="325">
<path d="M486.617 163.673L579.085 -46.9883L837.124 66.3887L744.656 277.048L486.617 163.673Z" fill="white"/>
</mask>
<g mask="url(#mask4_125_448)">
<mask id="mask5_125_448" style="mask-type:luminance" maskUnits="userSpaceOnUse" x="486" y="-47" width="351" height="325">
<path d="M578.952 -46.6953L486.484 163.964L744.525 277.341L836.992 66.6817L578.952 -46.6953Z" fill="white"/>
</mask>
<g mask="url(#mask5_125_448)">
<path d="M597.525 120.947C595.236 105.179 601.492 98.9762 598.645 98.9007C596.066 98.8334 590.058 110.377 587.636 118.029C580.571 140.351 600.89 144.103 597.525 120.947Z" fill="#FF21CE"/>
</g>
</g>
</g>
<mask id="mask6_125_448" style="mask-type:luminance" maskUnits="userSpaceOnUse" x="589" y="25" width="163" height="104">
<path d="M589.805 25.1992H751.844V128.519H589.805V25.1992Z" fill="white"/>
</mask>
<g mask="url(#mask6_125_448)">
<mask id="mask7_125_448" style="mask-type:luminance" maskUnits="userSpaceOnUse" x="486" y="-47" width="352" height="325">
<path d="M486.609 163.673L579.077 -46.9883L837.116 66.3887L744.648 277.048L486.609 163.673Z" fill="white"/>
</mask>
<g mask="url(#mask7_125_448)">
<mask id="mask8_125_448" style="mask-type:luminance" maskUnits="userSpaceOnUse" x="486" y="-47" width="351" height="325">
<path d="M578.944 -46.6953L486.477 163.964L744.517 277.341L836.985 66.6817L578.944 -46.6953Z" fill="white"/>
</mask>
<g mask="url(#mask8_125_448)">
<path d="M603.195 42.5378C609.902 42.4935 609.967 43.5386 606.701 45.8749C602.527 48.8575 605.982 55.3249 610.774 53.4939C663.735 33.2453 704.445 65.4721 728.168 93.7385C741.291 105.503 749.728 118.85 751.599 128.339C741.303 45.4598 653.481 16.7341 608.249 27.4392C583.138 33.3848 586.706 42.6445 603.195 42.5378Z" fill="#FF21CE"/>
</g>
</g>
</g>
<mask id="mask9_125_448" style="mask-type:luminance" maskUnits="userSpaceOnUse" x="560" y="47" width="169" height="98">
<path d="M560 47.0391H728.336V144.059H560V47.0391Z" fill="white"/>
</mask>
<g mask="url(#mask9_125_448)">
<mask id="mask10_125_448" style="mask-type:luminance" maskUnits="userSpaceOnUse" x="486" y="-47" width="352" height="325">
<path d="M486.609 163.673L579.077 -46.9883L837.116 66.3887L744.648 277.048L486.609 163.673Z" fill="white"/>
</mask>
<g mask="url(#mask10_125_448)">
<mask id="mask11_125_448" style="mask-type:luminance" maskUnits="userSpaceOnUse" x="486" y="-47" width="351" height="325">
<path d="M578.944 -46.6953L486.477 163.964L744.517 277.341L836.985 66.6817L578.944 -46.6953Z" fill="white"/>
</mask>
<g mask="url(#mask11_125_448)">
<path d="M577.557 72.3985C575.165 74.2048 574.799 77.76 576.931 79.8666C582.011 84.8853 591.596 72.4444 599.005 75.4976C604.06 77.5812 583.412 86.6293 568.597 108.589C547.096 140.463 572.912 155.472 574.561 133.276C575.25 123.957 579.894 111.67 594.179 96.2843C648.176 49.7546 699.42 67.9557 728.171 93.7381C699.702 59.8198 646.769 20.1921 577.557 72.3985Z" fill="#FF21CE"/>
</g>
</g>
</g>
<mask id="mask12_125_448" style="mask-type:luminance" maskUnits="userSpaceOnUse" x="610" y="78" width="24" height="24">
<path d="M610.797 78.1191H633.046V101.639H610.797V78.1191Z" fill="white"/>
</mask>
<g mask="url(#mask12_125_448)">
<mask id="mask13_125_448" style="mask-type:luminance" maskUnits="userSpaceOnUse" x="486" y="-47" width="352" height="325">
<path d="M486.617 163.673L579.085 -46.9883L837.124 66.3887L744.656 277.048L486.617 163.673Z" fill="white"/>
</mask>
<g mask="url(#mask13_125_448)">
<mask id="mask14_125_448" style="mask-type:luminance" maskUnits="userSpaceOnUse" x="486" y="-47" width="351" height="325">
<path d="M578.952 -46.6953L486.484 163.964L744.525 277.341L836.992 66.6817L578.952 -46.6953Z" fill="white"/>
</mask>
<g mask="url(#mask14_125_448)">
<path d="M632.672 78.449C630.962 77.3498 622.205 82.6704 617.45 86.8376C603.584 98.9897 615.738 109.815 622.924 92.8406C627.812 81.2857 634.56 79.6598 632.672 78.449Z" fill="#FF21CE"/>
</g>
</g>
</g>
<mask id="mask15_125_448" style="mask-type:luminance" maskUnits="userSpaceOnUse" x="635" y="7" width="164" height="245">
<path d="M635.148 7.14062H798.447V251.161H635.148V7.14062Z" fill="white"/>
</mask>
<g mask="url(#mask15_125_448)">
<mask id="mask16_125_448" style="mask-type:luminance" maskUnits="userSpaceOnUse" x="486" y="-47" width="352" height="325">
<path d="M486.617 163.675L579.085 -46.9863L837.124 66.3907L744.656 277.05L486.617 163.675Z" fill="white"/>
</mask>
<g mask="url(#mask16_125_448)">
<mask id="mask17_125_448" style="mask-type:luminance" maskUnits="userSpaceOnUse" x="486" y="-47" width="351" height="325">
<path d="M578.952 -46.6934L486.484 163.966L744.525 277.343L836.992 66.6837L578.952 -46.6934Z" fill="white"/>
</mask>
<g mask="url(#mask17_125_448)">
<path d="M755.877 185.108C782.942 123.447 754.925 51.5122 693.294 24.4337C674.42 16.1404 654.581 13.0248 635.359 14.4554C663.623 4.36887 695.639 4.63957 725.282 17.6629C786.911 44.7414 814.93 116.676 787.865 178.336C769.089 221.11 728.737 247.693 685.206 250.93C715.702 240.048 741.831 217.11 755.877 185.108Z" fill="#FF21CE"/>
</g>
</g>
</g>
</svg>
