<svg width="1607" height="375" viewBox="0 0 1607 375" fill="none" xmlns="http://www.w3.org/2000/svg">
<g clip-path="url(#clip0_103_3527)">
<path d="M55.6927 375.338L0.109375 205.796L40.7552 184.15L150.609 324.796L121.901 340.088L100.672 312.046L72.776 326.9L84.2135 360.15L55.6927 375.338ZM63.1094 302.546L85.6719 290.525L56.276 250.733L35.7969 222.046L34.3177 222.838L47.2344 255.817L63.1094 302.546Z" fill="#F98A03"/>
<path d="M157.172 322.378L84.2969 162.42L113.943 148.92L174.318 281.441L204.818 267.545L217.318 294.982L157.172 322.378Z" fill="#F98A03"/>
<path d="M224.656 292.036L159.969 128.599L190.26 116.62L243.865 252.036L275.031 239.703L286.115 267.724L224.656 292.036Z" fill="#F98A03"/>
<path d="M348.872 246.643L306.352 106.602L282.581 113.81L274.039 85.6643L354.789 61.1435L363.331 89.2893L338.664 96.7893L381.185 236.831L348.872 246.643Z" fill="#F98A03"/>
<path d="M412.625 227.335L372.812 56.1268L405.708 48.481L422.083 118.939L448.854 112.71L432.479 42.2518L465.833 34.5018L505.646 205.71L472.292 213.46L455.417 140.898L428.646 147.127L445.521 219.689L412.625 227.335Z" fill="#F98A03"/>
<path d="M518.427 203.624L489.844 30.1866L562.177 18.2491L566.865 46.7908L526.656 53.4158L533.719 96.2491L569.406 90.3741L573.802 117.02L538.115 122.895L545.844 169.77L586.052 163.145L590.76 191.687L518.427 203.624Z" fill="#F98A03"/>
<path d="M687.321 184.375C674.488 185.281 664.103 182.583 656.176 176.291C648.243 170 642.186 160.198 638.009 146.875C633.842 133.557 631.061 117.041 629.676 97.3331C628.415 79.5311 628.613 64.7654 630.28 53.0415C631.946 41.3227 634.868 32.0102 639.051 25.104C643.243 18.2029 648.41 13.1665 654.551 9.99981C660.686 6.82272 667.603 4.95814 675.301 4.41647C692.134 3.22376 704.676 7.97376 712.926 18.6665C721.176 29.3488 726.176 44.7029 727.926 64.729L696.426 66.979C695.176 53.9946 692.998 45.0363 689.905 40.104C686.821 35.1769 682.472 32.9113 676.863 33.3123C669.639 33.8279 665.155 38.7811 663.405 48.1665C661.655 57.5571 661.556 73.1561 663.113 94.9581C664.681 117.25 667.051 133.078 670.217 142.437C673.384 151.802 678.571 156.224 685.78 155.708C692.196 155.25 696.389 151.932 698.363 145.75C700.347 139.573 700.946 130.87 700.155 119.646L699.613 111.937L681.571 113.208L679.78 87.9581L729.321 84.4373L731.717 118.354C732.785 133.271 731.556 145.453 728.03 154.896C724.514 164.328 719.259 171.427 712.259 176.187C705.259 180.953 696.946 183.682 687.321 184.375Z" fill="#F98A03"/>
<path d="M795.177 180.757C776.521 180.684 763.365 173.168 755.698 158.194C748.042 143.21 744.271 120.606 744.385 90.3819C744.495 60.1736 748.432 37.6111 756.198 22.6944C763.974 7.76732 777.187 0.335033 795.844 0.402741C814.646 0.475657 827.875 8.04337 835.531 23.1111C843.198 38.1684 846.974 60.7257 846.865 90.7777C846.75 121.002 842.807 143.569 835.031 158.486C827.266 173.403 813.979 180.825 795.177 180.757ZM795.281 152.069C802.667 152.101 807.542 146.856 809.906 136.34C812.281 125.83 813.51 110.601 813.594 90.6527C813.677 69.4444 812.448 53.934 809.906 44.1111C807.365 34.2934 802.641 29.3715 795.74 29.3402C788.5 29.3142 783.74 34.5225 781.448 44.9652C779.156 55.3975 777.974 70.5798 777.906 90.5069C777.823 111.731 778.969 127.293 781.344 137.194C783.719 147.101 788.365 152.059 795.281 152.069Z" fill="#F98A03"/>
<path d="M904.374 185.259C885.791 183.8 873.233 175.316 866.707 159.8C860.192 144.274 858.124 121.446 860.499 91.3211C862.874 61.2118 868.489 39.0086 877.353 24.717C886.228 10.4149 899.957 3.98779 918.541 5.44612C937.291 6.93571 949.921 15.4774 956.437 31.0711C962.947 46.6545 965.025 69.4253 962.666 99.3836C960.291 129.509 954.666 151.727 945.791 166.029C936.926 180.332 923.124 186.743 904.374 185.259ZM906.624 156.654C913.999 157.238 919.259 152.378 922.416 142.071C925.567 131.769 927.926 116.67 929.499 96.7795C931.166 75.644 931.093 60.0815 929.291 50.092C927.499 40.1076 923.155 34.842 916.27 34.3003C909.062 33.7326 903.921 38.5711 900.853 48.8211C897.796 59.0607 895.483 74.1076 893.916 93.967C892.249 115.123 892.228 130.727 893.853 140.779C895.478 150.821 899.733 156.113 906.624 156.654Z" fill="#F98A03"/>
<path d="M965.414 188.392L992.227 14.6838L1027.02 20.0588C1048.31 23.3401 1062.97 32.6734 1071 48.0588C1079.04 63.4338 1080.72 86.2984 1076.04 116.642C1074.08 129.366 1071.36 140.908 1067.87 151.267C1064.4 161.632 1059.77 170.309 1053.98 177.309C1048.18 184.298 1040.91 189.267 1032.16 192.226C1023.41 195.184 1012.76 195.694 1000.21 193.767L965.414 188.392ZM1002.23 164.788L1010.1 165.996C1018.84 167.345 1025.75 163.658 1030.83 154.934C1035.92 146.215 1040.07 131.528 1043.25 110.871C1045.51 96.262 1046.42 84.6161 1045.98 75.9338C1045.53 67.2411 1043.79 60.8661 1040.75 56.8088C1037.72 52.7568 1033.5 50.3088 1028.1 49.4755L1020.23 48.2672L1002.23 164.788Z" fill="#F98A03"/>
<path d="M1152.06 226.459C1141.02 223.626 1132.73 219.048 1127.2 212.73C1121.69 206.428 1118.49 198.683 1117.6 189.501C1116.73 180.324 1117.69 170.209 1120.52 159.168L1148.56 166.334C1145.53 178.157 1144.92 186.668 1146.75 191.876C1148.58 197.074 1152.14 200.35 1157.43 201.709C1162.57 203.017 1166.66 202.116 1169.7 199.001C1172.75 195.876 1175.04 191.282 1176.58 185.209C1177.98 179.751 1178.25 174.97 1177.39 170.855C1176.53 166.73 1174.63 162.803 1171.68 159.064C1168.74 155.329 1165.03 151.22 1160.56 146.73C1155.93 142.064 1151.63 136.98 1147.64 131.48C1143.65 125.98 1140.9 119.558 1139.39 112.209C1137.88 104.85 1138.44 96.0324 1141.08 85.7511C1145.02 70.3344 1151.94 59.9959 1161.83 54.7303C1171.71 49.4542 1183.05 48.4542 1195.83 51.7303C1210.46 55.4803 1220.5 62.4907 1225.91 72.7511C1231.33 83.0167 1231.75 97.1053 1227.16 115.022L1198.66 107.73C1201.38 97.1365 1202 89.5376 1200.52 84.9386C1199.03 80.3292 1195.88 77.4074 1191.06 76.1678C1186.38 74.9751 1182.58 75.8709 1179.66 78.8553C1176.75 81.8292 1174.55 86.199 1173.08 91.9594C1171.63 97.5584 1171.32 102.329 1172.14 106.272C1172.96 110.22 1174.75 113.918 1177.52 117.376C1180.28 120.824 1183.78 124.663 1188.02 128.897C1193.33 134.064 1198.05 139.626 1202.16 145.584C1206.27 151.532 1209.13 158.157 1210.75 165.459C1212.37 172.751 1211.94 181.225 1209.48 190.876C1205.36 206.918 1198.27 217.756 1188.2 223.397C1178.13 229.032 1166.08 230.053 1152.06 226.459Z" fill="#F98A03"/>
<path d="M1223.51 244.341L1268.61 105.112L1244.99 97.4664L1254.05 69.4872L1334.34 95.4872L1325.28 123.466L1300.74 115.529L1255.63 254.758L1223.51 244.341Z" fill="#F98A03"/>
<path d="M1329.75 284.397C1314.67 278.381 1305.33 269.293 1301.7 257.126C1298.08 244.949 1299.36 231.084 1305.56 215.543L1351.08 101.334L1381.54 113.48L1335.91 227.918C1332.46 236.584 1331.4 243.079 1332.7 247.397C1334.01 251.72 1336.83 254.741 1341.16 256.459C1346.08 258.433 1350.46 258.074 1354.31 255.376C1358.15 252.668 1361.65 247.355 1364.81 239.439L1410.43 125.001L1440.45 136.959L1394.93 251.168C1388.14 268.194 1379.05 279.376 1367.66 284.709C1356.29 290.043 1343.65 289.939 1329.75 284.397Z" fill="#F98A03"/>
<path d="M1386.46 305.582L1461.86 146.811L1527.44 177.957L1515.04 204.082L1480.19 187.541L1459.5 231.103L1490 245.582L1478.11 270.624L1447.61 256.145L1417.19 320.186L1386.46 305.582Z" fill="#F98A03"/>
<path d="M1458.89 340.425L1542.91 186.029L1606.66 220.716L1592.85 246.133L1558.97 227.696L1535.91 270.05L1565.56 286.196L1552.31 310.55L1522.66 294.404L1488.77 356.675L1458.89 340.425Z" fill="#F98A03"/>
</g>
<defs>
<clipPath id="clip0_103_3527">
<rect width="1607" height="375" fill="white"/>
</clipPath>
</defs>
</svg>
