<svg viewBox="0 0 507 468" fill="none" xmlns="http://www.w3.org/2000/svg"><path fill-rule="evenodd" clip-rule="evenodd" d="M483.39 297.506C480.32 309.322 472.656 316.768 460.847 319.286C455.104 320.513 449.147 318.91 443.361 317.834C436.48 316.564 429.931 314.401 423.931 310.732C413.357 304.307 409.321 294.633 409.922 282.646C410.512 270.798 415.397 261.414 426.443 256.325C439.979 250.083 454.063 248.953 468.383 253.742C478.753 257.196 483.154 265.105 484.206 275.371C484.507 278.298 484.571 281.247 484.711 283.711C484.356 288.639 484.517 293.159 483.39 297.506ZM471.475 369.776C471.485 375.081 471.099 380.365 469.328 385.412C465.828 395.441 456.339 401.317 445.894 399.767C435.997 398.303 426.421 395.71 418.95 388.554C407.378 377.449 411.071 355.54 425.809 349.223C437.328 344.284 449.211 344.456 460.901 349.126C467.6 351.816 470.809 357.143 471.453 364.127C471.625 365.999 471.475 367.893 471.475 369.776ZM411.21 331.22C394.647 341.798 388.893 357.563 389.827 376.33C390.406 388.027 395.355 397.852 404.018 405.75C405.113 406.751 405.274 407.687 405.306 409.086C405.467 415.327 403.213 420.299 398.908 424.915C393.97 430.209 388.195 434.955 385.168 441.82C384.653 443.004 383.665 442.757 382.785 442.843C330.936 447.954 279.624 444.618 228.881 432.76C226.692 432.243 225.554 431.382 224.91 429.123C223.621 424.635 220.186 421.321 217.814 417.393C216.866 415.765 215.796 414.211 214.615 412.745C210.557 407.934 209.57 402.5 210.042 396.28C212.468 364.6 214.669 332.899 216.912 301.208C218.909 272.799 220.852 244.369 222.849 215.961C224.459 193.191 226.144 170.421 227.679 147.629C227.808 145.832 228.71 144.939 229.891 143.938C246.132 130.196 261.429 115.529 274.611 98.7962C279.779 92.3717 284.397 85.5214 288.416 78.3182C289.35 76.5965 290.348 75.8432 292.431 75.8217C328.553 75.359 364.246 79.0177 399.563 86.5611C402.3 87.1529 403.535 88.0461 403.76 91.1882C404.458 100.389 408.333 108.599 412.606 116.648C416.191 123.385 420.281 129.884 422.117 137.438C422.61 139.515 422.342 140.559 420.302 141.549C384.438 159.068 387.218 205.566 405.231 223.977C407.206 225.99 409.289 227.927 411.5 229.681C413.711 231.413 416.148 232.877 418.767 234.641C379.189 251.17 376.398 309.666 411.897 330.133C411.929 330.671 411.65 330.951 411.21 331.22ZM194.284 150.577C194.96 155.043 197.493 158.132 201.798 159.531C203.58 160.101 204.009 160.843 203.87 162.759C201.433 196.096 199.093 229.444 196.763 262.781C194.777 291.19 192.824 319.598 190.848 348.018C189.904 361.641 188.895 375.254 188.025 388.877C187.918 390.62 187.284 391.427 185.664 391.739C167.393 395.237 149.284 395.818 131.818 388.188C114.707 380.731 105.98 366.602 101.697 349.191C100.366 343.81 99.7646 338.322 99.1849 332.813C98.4012 325.377 93.3559 321.213 86.3032 321.912C80.0342 322.525 76.1697 327.981 76.685 335.18C77.5437 347.092 80.002 358.639 84.9185 370.799C77.4471 370.799 70.5447 370.648 63.6638 370.831C62.5259 370.863 61.388 370.896 22.9793 370.939V200.454L102.384 200.443C109.898 200.443 114.568 195.666 114.385 188.305C112.732 122.642 142.113 74.4336 197.805 41.2363C212.329 32.5738 227.819 26.0096 244.661 23.1688C254.001 21.5977 262.674 22.3402 269.856 29.6683C275.502 35.4469 277.102 42.1402 275.545 49.7912C273.463 60.0355 268.246 68.8487 262.234 77.1776C244.865 101.174 223.267 120.974 199.801 138.816C195.808 141.85 193.5 145.455 194.284 150.556M433.291 160.542C442.77 156.679 452.55 155.215 462.705 157.26C471.002 158.928 476.284 163.792 478.71 171.895C480.352 177.372 480.803 182.978 481.082 188.284C481.061 192.62 481.211 196.612 480.191 200.551C476.917 213.098 467.739 220.254 454.868 220.114C448.609 220.105 442.387 219.143 436.415 217.263C420.979 212.259 413.829 201.035 415.236 184.872C416.266 172.928 422.385 164.976 433.291 160.542ZM493.416 325.721C502.434 315.725 506.781 303.952 506.899 290.619C507.007 280.623 507.425 270.626 504.237 260.866C500.78 250.32 494.587 242.099 484.958 236.568C482.854 235.362 482.456 234.9 484.657 233.178C497.324 223.203 503.443 209.956 503.754 193.955C504.003 185.593 503.221 177.233 501.425 169.065C496.905 149.405 484.464 138.256 464.841 134.565C458.861 133.446 452.861 133.661 446.849 134.038C445.561 134.124 444.67 134.199 444.295 132.564C442.03 122.449 436.812 113.592 431.95 104.596C431.273 103.359 430.726 102.057 430.05 100.83C428.396 97.8169 427.838 95.4926 430.339 92.0276C436.512 83.4512 430.983 71.0439 420.056 68.1815C409.101 65.3552 398.039 62.9644 386.896 61.0148C358.453 55.8219 329.597 53.2358 300.686 53.2885C298.432 53.2885 298.109 52.815 298.389 50.5444C301.405 26.3109 285.453 5.06899 261.161 0.753882C260.871 0.700078 260.624 0.398774 260.356 0.205078H244.769C243.137 1.4103 241.162 0.915295 239.359 1.22736C223.546 4.03595 208.786 9.77149 194.595 17.1319C155.928 37.1902 126.193 66.0078 107.751 105.801C97.7198 127.42 92.1828 150.86 91.4774 174.693C91.3808 177.501 90.4146 177.878 87.9671 177.867C79.4008 177.824 70.8131 177.802 22.9685 177.802H0.296875V393.084H15.1859V393.396C72.2408 393.063 84.4247 392.729 96.6193 392.385C97.9504 392.353 99.0668 392.439 100.13 393.493C116.919 410.259 137.894 416.21 160.92 416.715C169.325 416.898 177.666 416.21 185.921 414.649C188.229 414.219 189.625 414.456 190.752 416.995C193.511 423.269 198.105 428.466 201.766 434.223C202.592 435.547 203.258 436.838 203.569 438.377C205.179 446.329 210.064 451.43 217.825 453.335C254.838 462.374 292.366 467.539 330.539 467.679C350.269 467.754 369.935 467.055 389.548 464.87C397.77 463.956 403.234 459.597 406.111 452C406.63 450.575 407.413 449.26 408.419 448.126C412.058 444.102 415.719 440.099 419.261 435.988C422.997 431.63 425.584 426.615 426.776 420.987C427.183 419.018 427.806 418.878 429.577 419.416C434.193 420.815 438.916 421.891 443.736 422.419C465.721 424.84 485.73 411.701 491.506 390.265C495.478 375.48 496.326 360.533 489.423 346.102C487.523 342.099 484.668 338.839 481.394 335.578C485.645 332.468 489.938 329.585 493.416 325.721Z" fill="currentcolor"/></svg>